<svg xmlns="http://www.w3.org/2000/svg" width="88" height="88" viewBox="0 0 88 88"><defs><clipPath id="fqida"><path d="M0 0v88h88V0z"/></clipPath></defs><g><g><g/><g clip-path="url(#fqida)"><g><path fill="#a2185b" d="M82.825 85.347a1.375 1.375 0 0 1-.51 2.653c-.17 0-.315 0-.511-.101-3.158-1.265-6.894-3.233-8.675-7.355-15.68 5.267-28.583 6.581-39.412 4.022-9.472-2.237-15.486-7.096-19.878-10.644-3.092-2.497-5.534-4.47-7.839-4.476-.598-.001-1.151-.446-1.298-1.058-.905-3.828-.175-8.085 1.49-14.6l10.71-42.017c.098-.412.395-.771.786-.922L42.462.114C43-.136 43.706 0 44.09.526l9.328 11.894c.409.52.388 1.26-.05 1.757L43 25.909c-.427.536-1.231.622-1.805.197l-5.333-3.944-2.32.646 1.642 24.076a20.215 20.215 0 0 1 11.138-3.366c4.137 0 8.11 1.239 11.492 3.583.186.113.324.23.484.349 4.326-5.079 10.756-8.075 17.473-8.075 2.398 0 4.739.356 6.96 1.06a1.375 1.375 0 0 1-.83 2.62 20.293 20.293 0 0 0-6.13-.93 20.288 20.288 0 0 0-15.376 7.104c2.047 1.988 3.605 4.388 4.706 7.074.278.697-.101 1.504-.777 1.782a1.376 1.376 0 0 1-1.782-.777 17.41 17.41 0 0 0-4.765-6.778c-.029-.02-.056-.033-.084-.053a1.402 1.402 0 0 1-.215-.202c-3.054-2.543-6.959-4.01-11.154-4.01-5.46 0-10.662 2.603-13.919 6.96-.455.608-1.316.775-1.925.278-.608-.503-.734-1.316-.278-1.925a19.875 19.875 0 0 1 2.367-2.635l-1.731-25.382L25.718 25c-.718.19-1.489-.238-1.718-1-.18-.7.248-1.458 1-1.663l10.772-3.004c.408-.115.846-.035 1.228.218l4.815 3.593 8.735-9.926-7.968-10.16-23.183 10.046L8.855 54.466C7.449 60 6.745 63.708 7.195 66.792c2.805.46 5.281 2.495 8.372 4.99C24.465 79 37.91 89.832 73.51 77.51a1.376 1.376 0 0 1 1.769.91c1.144 3.89 4.302 5.581 7.545 6.928zM53.383 77.37c-2.805.392-5.383.63-7.733.63-3.338 0-6.3-.433-9.039-1.221-5.9-1.7-10.694-5.363-14.248-10.887-.363-.64-.227-1.49.412-1.892.64-.42 1.49-.236 1.901.404C32.108 76 43.718 75.944 53 74.646a1.375 1.375 0 1 1 .383 2.725z"/></g></g></g></g></svg>