<svg xmlns="http://www.w3.org/2000/svg" width="82" height="82" viewBox="0 0 82 82"><defs><clipPath id="ucn0a"><path d="M0 0v82h82V0z"/></clipPath></defs><g><g><g/><g clip-path="url(#ucn0a)"><g><g><path fill="#a2185b" d="M26.784 39.396a5.745 5.745 0 0 1-5.622 4.526c-.734 0-1.328.595-1.328 1.328 0 .75.594 1.329 1.328 1.329 4.21 0 7.708-3.11 8.318-7.153a11.141 11.141 0 0 0 6.8-3.308 1.328 1.328 0 0 0-1.898-1.859 8.525 8.525 0 0 1-6.136 2.579 8.59 8.59 0 0 1-8.59-8.59 1.328 1.328 0 1 0-2.656 0c0 5.752 4.272 10.429 9.784 11.148z"/></g><g><path fill="#a2185b" d="M32.408 50.918c0-.733-.595-1.328-1.328-1.328-6.201 0-11.246 5.045-11.246 11.246 0 .064.002.164.003.164-.494 0-.997-.075-1.509-.075-.733 0-1.328.594-1.328 1.328a1.32 1.32 0 0 0 1.328 1.328c4.737 0 8.59 3.854 8.59 8.59 0 .734.595 1.328 1.328 1.328.754 0 1.329-.594 1.329-1.328 0-4.713-2.916-8.755-7.037-10.426a8.745 8.745 0 0 1-.048-.909c0-4.736 3.854-8.59 8.59-8.59.733 0 1.328-.594 1.328-1.328z"/></g><g><path fill="#a2185b" d="M70 60.182c-.585.253-.901.818-.777 1.479.134.658.202 1.339.202 2.009 0 4.509-3.045 8.478-7.425 9.65a1.32 1.32 0 0 0-.809.68 10.002 10.002 0 0 1-8.857 5.343c-5.517 0-10.006-4.489-10.006-10.006 0-.337-.018-.744-.05-1.11.032-.114.05-.227.05-.357V24a4.345 4.345 0 0 1 4.339-4.341c.733 0 1.333-.595 1.333-1.328 0-.734-.6-1.331-1.333-1.331-1.667 0-3.146.57-4.34 1.517V7a4.345 4.345 0 0 1 4.34-4.344c2.665 0 6.002 1.175 9.392 3.244a8.475 8.475 0 0 0-5.628 4.509c-.321.66-.046 1.455.569 1.775.705.32 1.5.045 1.82-.615A5.72 5.72 0 0 1 58 8.324c.72 0 1.407.133 2 .374.116.04.193.07.272.093a5.764 5.764 0 0 1 3.486 5.289c0 1.049-.28 2.06-.811 2.92-5.866.402-10.524 5.29-10.524 11.248 0 .752.577 1.329 1.328 1.329.734 0 1.328-.577 1.328-1.329 0-4.736 3.854-8.59 8.59-8.59s8.59 3.854 8.59 8.59c0 1.106-.259 2.19-.632 3.225A1.355 1.355 0 0 0 72 33c2 1.63 3.092 4 3.092 6.583 0 4.737-3.853 8.59-8.59 8.59a1.328 1.328 0 1 0 0 2.656c2.846 0 5.445-1.064 7.428-2.829A8.611 8.611 0 0 1 70 60.182zM29.665 79.344A10.002 10.002 0 0 1 20.808 74a1.321 1.321 0 0 0-.808-.68c-4.382-1.173-7.426-5.141-7.426-9.65 0-.67.068-1.351.202-2.01.124-.66-.192-1.225-.776-1.478A8.61 8.61 0 0 1 8.069 48a11.127 11.127 0 0 0 7.427 2.83 1.328 1.328 0 1 0 0-2.657c-4.736 0-8.59-3.853-8.59-8.59C6.907 37 8 34.631 10 33c.436-.38.59-1 .372-1.527-.372-1.034-.632-2.119-.632-3.225 0-4.736 3.854-8.59 8.59-8.59s8.59 3.854 8.59 8.59c0 .752.594 1.329 1.328 1.329.752 0 1.328-.577 1.328-1.329 0-5.958-4.658-10.846-10.524-11.248a5.547 5.547 0 0 1-.81-2.92 5.764 5.764 0 0 1 3.484-5.288c.08-.024.157-.055.274-.094a5.339 5.339 0 0 1 2-.374 5.719 5.719 0 0 1 5.179 3.245c.32.66 1.115.936 1.821.615.614-.32.889-1.115.568-1.775a8.475 8.475 0 0 0-5.628-4.51c3.39-2.068 6.727-3.242 9.392-3.242A4.345 4.345 0 0 1 39.672 7v17.184a6.896 6.896 0 0 0-4.34-1.515C34.598 22.67 34 23.264 34 24c0 .732.598 1.326 1.332 1.326a4.344 4.344 0 0 1 4.34 4.34v31.928C38 59.463 35.691 57.854 33 57.119c-.756-.19-1.484.23-1.675.938-.19.709.23 1.437.938 1.628a10.013 10.013 0 0 1 7.408 9.652c0 5.518-4.489 10.007-10.006 10.007zm48.084-39.76c0-3.025-1.208-5.89-3.343-7.998.338-1.082.51-2.201.51-3.338 0-5.467-3.916-10.034-9.103-11.039a8.386 8.386 0 0 0 .601-3.13c0-3.463-2.104-6.444-5.102-7.732C56.32 2.37 50.858 0 46.667 0A6.988 6.988 0 0 0 41 2.902 6.991 6.991 0 0 0 35.332 0c-4.19 0-9.652 2.37-14.646 6.347-2.997 1.289-5.101 4.27-5.101 7.733 0 1.085.205 2.143.6 3.13C11 18.213 7.085 22.78 7.085 28.247c0 1.137.17 2.256.509 3.338a11.216 11.216 0 0 0-3.343 7.997c0 2.364.75 4.56 1.986 6.417-1.3 1.834-1.986 4-1.986 6.335 0 4.089 2.23 7.835 5.75 9.81a14.91 14.91 0 0 0-.083 1.524c0 5.516 3.598 10.393 8.818 12.055A12.623 12.623 0 0 0 29.665 82c4.958 0 9.257-2.866 11.335-7 2.077 4.134 6.376 7 11.334 7 4.523 0 8.666-2.39 10.93-6.276 5.22-1.662 8.818-6.539 8.818-12.055 0-.508-.031-1.018-.082-1.523a11.269 11.269 0 0 0 5.749-9.811c0-2.335-.686-4.501-1.986-6.335 1.237-1.858 1.986-4.053 1.986-6.417z"/></g><g><path fill="#a2185b" d="M63.667 42.502c-2.751 0-5.057-1.941-5.667-4.502 5.558-.743 9.83-5.466 9.83-11.172a1.328 1.328 0 1 0-2.657 0c0 4.737-3.853 8.59-8.59 8.59a8.525 8.525 0 0 1-6.136-2.579 1.328 1.328 0 0 0-1.878-.019 1.261 1.261 0 0 0-.02 1.878A11.107 11.107 0 0 0 55.35 38c.651 4 4.108 7.159 8.318 7.159.734 0 1.333-.595 1.333-1.328 0-.734-.599-1.329-1.333-1.329z"/></g><g><path fill="#a2185b" d="M59.42 58.095c-.512 0-1.015.037-1.509.104.001-.064.004-.129.004-.199 0-6.195-5.046-11.24-11.247-11.24a1.328 1.328 0 1 0 0 2.657c4.737 0 8.59 3.853 8.59 8.583 0 .31-.016.615-.048.915-4.12 1.67-7.036 5.713-7.036 10.426a1.328 1.328 0 0 0 2.656 0c0-4.736 3.854-8.59 8.59-8.59a1.328 1.328 0 0 0 0-2.656z"/></g></g></g></g></g></svg>