<svg xmlns="http://www.w3.org/2000/svg" width="78" height="90" viewBox="0 0 78 90"><g><g clip-path="url(#clip-82C50015-85D4-4A4B-A704-89C842C4725F)"><g><g><path fill="#a2185b" d="M19.181 80.947A36.173 36.173 0 0 1 6 64.935 36.1 36.1 0 0 1 4 44.32C5.387 37.4 8.785 31 13.775 26.053A35.718 35.718 0 0 1 32 16.289c7-1.377 14.138-.67 20.657 2.03C59.177 21 64.75 25.593 68.67 31.46a35.68 35.68 0 0 1 6.013 19.822 35.72 35.72 0 0 1-10.463 25.216A35.932 35.932 0 0 1 39 87c-7.053 0-14-2.133-19.819-6.053zm-3.806-67.22L18.462 12l3.033 5.233A42.034 42.034 0 0 0 18.411 19zm21.848-4.496h3.56V13H37.224zM33.248 3h11.51v3.606h-11.51zm26.296 8.949l3.088 1.778L59.596 19c-1-.627-2.028-1.22-3.085-1.767zm6.018 1.95a1.312 1.312 0 0 0-.484-1.792L59.714 9a1.432 1.432 0 0 0-.996-.103 1.36 1.36 0 0 0-.796.613l-3.788 6.593a37.994 37.994 0 0 0-10.725-2.86V9.23h2.662a1.315 1.315 0 0 0 1.313-1.313V1.732A1.31 1.31 0 0 0 46.07.42H31.935c-.172 0-.343.034-.502.1-.16.066-.304.162-.433.284a1.41 1.41 0 0 0-.278.426c-.065.16-.1.33-.1.502v6.186c0 .349.139.682.378.929.253.246.587.384.935.384h2.663v4.008a37.995 37.995 0 0 0-10.725 2.86l-3.789-6.593c-.084-.15-.2-.28-.336-.386a1.1 1.1 0 0 0-.459-.227 1.317 1.317 0 0 0-.51-.035 1.848 1.848 0 0 0-.486.142l-5.365 3.104a1.313 1.313 0 0 0-.484 1.791L16.24 20.5A38.304 38.304 0 0 0 2.623 63.287a38.186 38.186 0 0 0 13.929 19.05 38.301 38.301 0 0 0 44.902 0 38.224 38.224 0 0 0 13.93-19.05A38.304 38.304 0 0 0 61.767 20.5z"/></g><g><path fill="#a2185b" d="M53.82 74l-1.688-2.903c-.132-.3-.464-.518-.8-.606a1.316 1.316 0 0 0-.996.138c-.336.176-.518.464-.606.8-.088.338-.039.696.137.996l1.69 2.881a26.921 26.921 0 0 1-11.25 3.062V75c0-.329-.139-.663-.385-.909a1.31 1.31 0 0 0-1.856 0c-.246.246-.385.58-.385.909v3.368a26.858 26.858 0 0 1-11.11-2.995l1.672-2.89a1.312 1.312 0 0 0-1.474-1.913c-.334.087-.62.302-.769.598l-1.699 2.887a27.187 27.187 0 0 1-8-7.956l2.878-1.686a1.313 1.313 0 0 0 .464-1.793 1.388 1.388 0 0 0-.798-.62c-.336-.074-.693 0-.993.148L15 63.837a26.528 26.528 0 0 1-3.092-11.25h3.35c.347 0 .681-.139.927-.385.246-.202.385-.58.385-.928 0-.348-.139-.682-.385-.928s-.58-.346-.928-.346h-3.349a26.94 26.94 0 0 1 2.994-11.152l2.89 1.672c.3.165.654.206.985.114.33-.092.612-.31.784-.634.172-.27.22-.623.135-1a1.358 1.358 0 0 0-.59-.752l-2.886-1.67a27.38 27.38 0 0 1 7.955-7.997l1.686 2.878c.139.298.465.541.801.602.338.087.693.037.992-.138.346-.176.518-.463.606-.798.089-.336.04-.693-.134-.993l-1.689-2.882a26.914 26.914 0 0 1 11.25-3.061v3.348a1.313 1.313 0 1 0 2.625 0v-3.348a26.844 26.844 0 0 1 11.114 2.992l-1.676 2.892a1.312 1.312 0 0 0 .47 1.808c.15.119.317.119.49.119a.728.728 0 0 0 .514 0c.168 0 .325-.114.462-.22a1 1 0 0 0 .314-.393l1.692-2.89a27.33 27.33 0 0 1 8 7.958l-2.877 1.686a1.315 1.315 0 0 0-.474 1.799c.087.149.203.28.341.383.138.105.318.18.462.224a1.315 1.315 0 0 0 .998-.141L63 38.717A26.475 26.475 0 0 1 66.085 50h-3.348c-.348 0-.682.105-.928.351-.247.247-.385.58-.385.929 0 .348.138.72.385.928.246.246.58.384.928.384h3.348a26.925 26.925 0 0 1-2.993 11.11L60.202 62a1.457 1.457 0 0 0-.996-.102 1.36 1.36 0 0 0-.797.61 1.313 1.313 0 0 0 .479 1.795L61.774 66a27.985 27.985 0 0 1-7.955 8zm14.924-22.805a29.682 29.682 0 0 0-4.022-14.827 1.196 1.196 0 0 0-.06-.131 1.218 1.218 0 0 0-.075-.102A29.953 29.953 0 0 0 54 25.612c0-.03-.066-.057-.105-.082a1.171 1.171 0 0 0-.131-.059 29.64 29.64 0 0 0-29.674.08c-.09.019-.09.04-.09.062a.35.35 0 0 0-.143.075 29.964 29.964 0 0 0-10.527 10.58.706.706 0 0 0-.14.242A29.563 29.563 0 0 0 9.25 51.36a29.639 29.639 0 0 0 4.022 14.826c.017.045.037.09.06.132.016.028.041.05.06.075C16 70.747 19.617 74.375 24 76.94c0 .06.058.06.098.06.033 0 .07 0 .103.066C28.726 79.672 33.859 81 39.08 81a29.644 29.644 0 0 0 14.857-4C54 77 54 77 54 76.94c.068-.019.103-.049.136-.075A29.963 29.963 0 0 0 64.68 66.257c.02-.03.046-.051.064-.082a.55.55 0 0 0 .059-.175 29.365 29.365 0 0 0 3.94-14.805z"/></g><g><path fill="#a2185b" d="M39 54.645a3.374 3.374 0 0 1-3.119-2.08 3.37 3.37 0 0 1-.192-1.948 3.52 3.52 0 0 1 .923-1.726A3.112 3.112 0 0 1 38.338 48a3.119 3.119 0 0 1 1.947.16 3.373 3.373 0 0 1 1.513 1.243c.37.597.568 1.206.568 1.872-.002.894-.366 1.725-.989 2.382a3.373 3.373 0 0 1-2.377.988zm19.407-4.298c-.246-.246-.58-.347-.928-.347H44.841c-.25-1.144-.841-2.156-1.611-3a6.288 6.288 0 0 0-2.922-1.57V32.791a1.312 1.312 0 1 0-2.625 0V45.43a5.994 5.994 0 0 0-.181 11.653c1.04.267 2.131.25 3.162-.082a5.654 5.654 0 0 0 2.697-1.618 5.994 5.994 0 0 0 1.48-2.794H57.48c.348 0 .682-.139.928-.385.246-.203.384-.58.385-.928 0-.348-.139-.681-.385-.928z"/></g></g></g></g></svg>